<svg width="411" height="300" viewBox="0 0 411 300" fill="none" xmlns="http://www.w3.org/2000/svg">
<g clip-path="url(#clip0_1_5)">
<path d="M163.303 299.854H120.271C110.99 299.854 108.626 296.055 111.734 286.215C119.643 261.601 127.829 237.1 136.293 212.713C136.969 211.496 137.408 210.134 137.584 208.717C137.76 207.299 137.667 205.857 137.313 204.481C136.959 203.105 136.35 201.827 135.526 200.729C134.702 199.63 133.681 198.735 132.528 198.1C110.158 179.883 88.1388 161.081 65.9441 142.474C51.4541 130.297 51.279 122.163 65.9441 110.034C107.838 75.0609 150.039 40.3312 192.108 5.35801C196.206 1.8044 201.272 -0.0858754 206.467 -5.93066e-06H287.015C299.754 -5.93066e-06 302.031 4.33511 297.434 17.7789C289.642 40.6235 282.112 63.6142 274.057 86.3614C272.607 89.3406 272.276 92.8379 273.137 96.0878C273.999 99.3377 275.982 102.075 278.654 103.702C301.505 122.455 324.094 141.549 346.639 160.692C357.802 170.141 357.758 178.958 346.376 188.456C303.65 224.176 260.866 259.717 218.023 295.08C214.159 298.437 209.351 300.162 204.453 299.951C190.707 299.708 177.005 299.951 163.259 299.951L163.303 299.854ZM176.874 99.8539C170.462 103.124 164.553 107.497 159.363 112.811C147.368 122.552 147.325 129.761 159.144 139.795C177.574 155.869 196.31 171.603 215.266 186.995C237.679 205.261 229.011 205.455 252.913 186.02C262.544 178.178 262.281 170.434 252.651 162.299C229.58 142.815 206.335 123.332 183.177 104.189C181.251 102.63 179.106 101.364 176.874 99.8539Z" fill="url(#paint0_linear_1_5)"/>
</g>
<path d="M29.0455 196L2.40909 102.909H23.9091L39.3182 167.591H40.0909L57.0909 102.909H75.5L92.4546 167.727H93.2727L108.682 102.909H130.182L103.545 196H84.3636L66.6364 135.136H65.9091L48.2273 196H29.0455ZM140.716 196V102.909H160.398V141.318H200.352V102.909H219.989V196H200.352V157.545H160.398V196H140.716ZM255.898 102.909V196H236.216V102.909H255.898ZM272.091 196V102.909H291.773V179.773H331.682V196H272.091ZM329.545 119.136V102.909H406V119.136H377.5V196H358.045V119.136H329.545Z" fill="white"/>
<defs>
<linearGradient id="paint0_linear_1_5" x1="55" y1="150.024" x2="355" y2="150.024" gradientUnits="userSpaceOnUse">
<stop stop-color="#4CF37B"/>
<stop offset="0.49" stop-color="#2340FE"/>
<stop offset="0.99" stop-color="#F001FF"/>
</linearGradient>
<clipPath id="clip0_1_5">
<rect width="300" height="300" fill="white" transform="translate(55)"/>
</clipPath>
</defs>
</svg>
